<svg width="375" height="302" viewBox="0 0 375 302" fill="none" xmlns="http://www.w3.org/2000/svg">
<path d="M394 280.818H-65V281.79H394V280.818Z" fill="#3F3D56"/>
<path d="M195.26 79.8289H221.513V37.695H195.26V79.8289Z" fill="#2F2E41"/>
<path d="M216.439 57.131C216.439 57.131 215.452 77.9329 224.185 78.7859C230.296 79.3827 212.268 97.8159 212.268 97.8159L196.776 74.1924C196.776 74.1924 208.389 75.5022 200.947 61.0683L216.439 57.131Z" fill="#FFB8B8"/>
<path opacity="0.1" d="M196.775 74.1946L201.671 81.6615L212.269 97.8155C212.269 97.8155 221.119 88.7638 224.315 83.1442C225.516 81.0295 225.922 79.401 224.757 78.9197C224.752 78.9159 224.745 78.9141 224.739 78.9149C224.572 78.8459 224.396 78.8033 224.218 78.7885C224.208 78.7859 224.198 78.7843 224.187 78.7836C223.678 78.7365 223.178 78.6122 222.7 78.4142C215.566 75.4779 216.44 57.1314 216.44 57.1314L200.947 61.0691C205.913 70.6993 202.394 73.3244 199.503 74.0001C198.869 74.1458 198.222 74.2208 197.574 74.2237C197.084 74.2286 196.775 74.1946 196.775 74.1946Z" fill="black"/>
<path d="M192.221 40.0464C195.058 49.2951 199.407 57.722 208.271 57.722C217.135 57.722 223.822 49.7928 224.321 40.0464C224.959 27.5924 217.34 22.3193 208.271 22.3709C197.558 22.4318 188.855 29.0705 192.221 40.0464Z" fill="#2F2E41"/>
<path d="M230.144 190.341L225.973 222.495C225.973 222.495 229.548 242.182 227.761 255.962L225.973 270.398H217.631L215.248 255.306C215.248 255.306 212.864 239.557 212.864 232.338C212.864 232.338 206.31 199.528 210.481 192.966L230.144 190.341Z" fill="#FFB8B8"/>
<path d="M179.496 188.372L183.667 222.495C183.667 222.495 180.092 242.182 181.88 255.962L183.667 270.398H192.009L194.393 255.306C194.393 255.306 196.776 239.557 196.776 232.338C196.776 232.338 203.33 197.559 199.159 190.997L179.496 188.372Z" fill="#FFB8B8"/>
<path d="M187.838 268.43C187.838 268.43 183.071 266.461 182.476 269.086C181.88 271.711 180.688 285.491 180.688 285.491C180.688 285.491 177.113 291.397 174.729 292.053C172.346 292.71 166.983 301.24 173.538 301.896C180.092 302.553 186.646 299.928 186.646 298.615C186.646 297.303 189.03 296.647 190.222 296.647C191.413 296.647 195.584 294.678 194.988 292.709C194.393 290.741 192.605 267.774 192.605 267.774L187.838 268.43Z" fill="#2F2E41"/>
<path d="M221.802 268.43C221.802 268.43 226.569 266.461 227.165 269.086C227.761 271.711 228.952 285.491 228.952 285.491C228.952 285.491 232.527 291.397 234.911 292.053C237.294 292.71 242.657 301.24 236.103 301.896C229.548 302.553 222.994 299.928 222.994 298.615C222.994 297.303 220.61 296.647 219.419 296.647C218.227 296.647 214.056 294.678 214.652 292.709C215.248 290.741 217.035 267.774 217.035 267.774L221.802 268.43Z" fill="#2F2E41"/>
<path d="M207.501 64.8317C214.325 64.8317 219.857 58.7399 219.857 51.2252C219.857 43.7105 214.325 37.6187 207.501 37.6187C200.678 37.6187 195.146 43.7105 195.146 51.2252C195.146 58.7399 200.678 64.8317 207.501 64.8317Z" fill="#FFB8B8"/>
<path d="M161.025 126.03C161.025 126.03 186.049 137.843 188.432 125.374C189.898 117.582 190.893 109.691 191.412 101.753C191.414 101.751 191.417 101.749 191.421 101.748C191.769 101.515 204.098 93.1828 201.671 81.6615C201.105 79.1659 200.044 76.8396 198.563 74.8508C198.563 74.8508 198.197 74.5883 197.574 74.2237C196.844 73.7946 196.091 73.4163 195.318 73.0911C191.112 71.3264 184.115 70.3299 182.478 82.065C180.094 99.1281 180.094 117.504 180.094 117.504C180.094 117.504 172.943 122.098 163.408 117.504C153.874 112.91 144.339 115.535 143.743 121.441C143.147 127.343 161.025 126.03 161.025 126.03Z" fill="#FFB8B8"/>
<path d="M224.187 78.7836L224.315 83.1442L225.737 132.302L225.975 140.469L246.828 166.063C246.828 166.063 250.999 179.84 259.938 181.809C268.877 183.778 253.979 162.782 253.979 162.782L233.718 129.968L233.687 128.865C233.458 119.671 234.154 110.477 235.761 101.452C236.356 98.0924 236.471 94.6513 236.101 91.2528C235.271 83.9317 229.802 80.7573 226.571 79.508C225.977 79.2734 225.371 79.077 224.757 78.9197C224.752 78.9159 224.745 78.9142 224.739 78.9149C224.47 78.842 224.289 78.8031 224.218 78.7885C224.208 78.7859 224.198 78.7843 224.187 78.7836Z" fill="#FFB8B8"/>
<path d="M190.816 126.03V128.656C199.503 140.347 218.731 134.825 225.737 132.302C227.383 131.708 228.354 131.281 228.354 131.281C227.998 130.459 227.795 129.566 227.758 128.656V122.754C227.758 120.785 227.167 122.098 226.571 121.441C225.975 120.785 228.354 116.848 228.354 116.848C234.313 112.91 230.738 101.753 230.738 101.753L226.571 91.9091V79.5079C225.977 79.2734 225.371 79.077 224.757 78.9197C224.752 78.9159 224.745 78.9141 224.739 78.9149C224.572 78.8459 224.396 78.8033 224.218 78.7885C224.208 78.7859 224.198 78.7843 224.187 78.7836C223.678 78.7365 223.178 78.6122 222.7 78.4142C221.583 80.9517 219.155 84.2915 214.057 84.6901C207.952 85.1713 202.165 77.9232 199.503 74.0001C198.869 74.1458 198.222 74.2208 197.574 74.2237C196.845 73.7946 196.091 73.4163 195.318 73.091L197.967 85.3464C200.311 91.7973 191.717 101.413 191.421 101.748C191.417 101.749 191.414 101.751 191.412 101.753V108.972L192.008 116.848L192.604 118.816L191.412 120.785L192.008 122.754L191.412 124.067C190.816 125.374 190.816 124.723 190.816 126.03Z" fill="#D0CDE1"/>
<path d="M227.165 130.626L228.952 129.97C228.952 129.97 250.403 189.029 236.103 191.654C221.802 194.278 211.077 198.872 208.693 194.278C206.31 189.685 207.501 173.28 207.501 173.28L205.118 172.624C205.118 172.624 209.289 196.903 200.947 194.935C192.605 192.966 169.367 189.685 169.367 187.06C169.367 184.435 190.818 127.746 190.818 127.746C190.818 127.746 199.755 133.907 227.165 130.626Z" fill="#2F2E41"/>
<path d="M208.271 26.092C211.77 26.092 214.607 22.9682 214.607 19.1148C214.607 15.2614 211.77 12.1376 208.271 12.1376C204.772 12.1376 201.936 15.2614 201.936 19.1148C201.936 22.9682 204.772 26.092 208.271 26.092Z" fill="#2F2E41"/>
<path d="M215.874 15.3936C215.874 13.664 215.29 11.9961 214.237 10.7134C213.183 9.43074 211.735 8.6247 210.172 8.45167C210.38 8.42888 210.591 8.41644 210.805 8.41644C211.637 8.41644 212.461 8.59692 213.23 8.94755C213.999 9.29819 214.697 9.81212 215.285 10.46C215.874 11.1079 216.34 11.8771 216.659 12.7236C216.977 13.5701 217.141 14.4774 217.141 15.3936C217.141 16.3099 216.977 17.2172 216.659 18.0637C216.34 18.9102 215.874 19.6794 215.285 20.3273C214.697 20.9752 213.999 21.4891 213.23 21.8397C212.461 22.1904 211.637 22.3708 210.805 22.3708C210.591 22.3708 210.38 22.3584 210.172 22.3356C211.734 22.1626 213.183 21.3565 214.237 20.0739C215.29 18.7912 215.874 17.1233 215.874 15.3936Z" fill="#2F2E41"/>
<path d="M213.373 33.7047C213.373 33.7047 213.505 32.8936 218.679 35.0304C223.853 37.1671 226.954 52.9352 224.367 62.1943C223.325 65.9257 224.173 68.616 225.557 70.4984C230.751 77.5622 228.707 88.1719 221.141 91.8043C220.927 91.9069 220.709 92.0082 220.487 92.1084L217.253 94.2451C217.253 94.2451 221.376 88.2717 219.313 80.6307C217.521 74.1202 217.3 67.2082 218.671 60.575C218.907 59.456 219.176 58.3025 219.482 57.1254C222.068 47.154 220.81 48.3056 211.756 38.3342C211.756 38.3342 206.582 42.6077 202.055 44.7444C197.528 46.8811 193.647 49.0178 196.881 56.1402C200.115 63.2626 207.876 69.6728 202.702 78.932C197.528 88.1911 196.881 84.6299 197.528 88.1911L198.175 91.7523L194.294 87.4789L196.881 93.1768C196.881 93.1768 188.474 93.1768 185.887 86.0544L184.593 87.4788C184.593 87.4788 179.419 77.5075 189.12 68.2483C189.12 68.2483 192.354 66.1116 187.827 58.9892C183.3 51.8668 186.777 36.5536 192.597 33.7047C198.418 30.8557 213.373 33.7047 213.373 33.7047Z" fill="#2F2E41"/>
<path d="M149.884 65.0246V96.9535C149.883 97.2485 149.777 97.5312 149.587 97.7398C149.398 97.9484 149.141 98.066 148.873 98.0668H148.154V264.396C148.154 268.998 146.493 273.413 143.538 276.667C140.583 279.922 136.574 281.75 132.395 281.75H38.0241C35.9549 281.75 33.906 281.301 31.9944 280.429C30.0828 279.557 28.3459 278.278 26.883 276.667C25.4201 275.055 24.2597 273.142 23.4682 271.036C22.6766 268.931 22.2694 266.674 22.2698 264.396V103.9H21.7489C21.5599 103.901 21.3785 103.818 21.2445 103.672C21.1104 103.525 21.0347 103.326 21.0338 103.118V84.9462C21.0338 84.8427 21.0523 84.7403 21.0882 84.6448C21.1241 84.5492 21.1768 84.4624 21.2432 84.3892C21.3096 84.3161 21.3884 84.2581 21.4752 84.2185C21.562 84.179 21.655 84.1586 21.7489 84.1586H22.2698V77.3139H21.7445C21.5461 77.3131 21.3561 77.2256 21.2162 77.0707C21.0764 76.9157 20.9981 76.706 20.9985 76.4875V58.564C20.999 58.3462 21.0777 58.1376 21.2175 57.9836C21.3573 57.8297 21.5468 57.743 21.7445 57.7424H22.2698V48.399H21.7356C21.6487 48.3991 21.5625 48.3804 21.4821 48.3438C21.4017 48.3072 21.3287 48.2535 21.2672 48.1857C21.2057 48.118 21.1569 48.0375 21.1237 47.949C21.0904 47.8605 21.0734 47.7656 21.0735 47.6698V37.8889C21.0731 37.6949 21.1426 37.5087 21.2667 37.3711C21.3909 37.2335 21.5595 37.1557 21.7356 37.1549H22.2698V17.35C22.27 12.7485 23.9298 8.3356 26.8843 5.08189C29.8388 1.82818 33.8458 0.000198114 38.0241 3.05178e-05H132.395C136.574 9.71543e-06 140.581 1.82778 143.537 5.08139C146.492 8.33499 148.153 12.748 148.154 17.35V63.9114H148.873C149.141 63.9122 149.398 64.0297 149.587 64.2383C149.777 64.4469 149.883 64.7296 149.884 65.0246Z" fill="#3F3D56"/>
<path d="M89.7562 8.89948H74.4215C73.8018 8.89948 73.2994 9.45271 73.2994 10.1352V11.5948C73.2994 12.2773 73.8018 12.8305 74.4215 12.8305H89.7562C90.3759 12.8305 90.8783 12.2773 90.8783 11.5948V10.1352C90.8783 9.45271 90.3759 8.89948 89.7562 8.89948Z" fill="#E6E8EC"/>
<path d="M95.5608 13.0947C96.679 13.0947 97.5855 12.0964 97.5855 10.865C97.5855 9.63356 96.679 8.63528 95.5608 8.63528C94.4427 8.63528 93.5362 9.63356 93.5362 10.865C93.5362 12.0964 94.4427 13.0947 95.5608 13.0947Z" fill="#E6E8EC"/>
<path d="M140.608 20.7819V265.835C140.606 268.754 139.553 271.553 137.678 273.617C135.803 275.681 133.26 276.841 130.61 276.841H40.2731C38.9598 276.843 37.659 276.56 36.4453 276.008C35.2315 275.456 34.1286 274.645 33.1998 273.623C32.2709 272.6 31.5345 271.386 31.0326 270.05C30.5307 268.713 30.2732 267.281 30.2749 265.835V20.7819C30.2749 19.3359 30.5334 17.9041 31.0359 16.5682C31.5383 15.2323 32.2748 14.0184 33.2032 12.9959C34.1316 11.9735 35.2338 11.1624 36.4469 10.6091C37.6599 10.0558 38.9601 9.77102 40.2731 9.77109H53.7937V11.6816C53.7937 14.0861 54.6611 16.3921 56.205 18.0924C57.7489 19.7927 59.8428 20.7479 62.0262 20.7479H107.969C110.153 20.7479 112.246 19.7927 113.79 18.0924C115.334 16.3922 116.202 14.0861 116.202 11.6816V9.77109H130.61C131.923 9.77062 133.223 10.0551 134.436 10.6083C135.649 11.1615 136.752 11.9725 137.68 12.995C138.609 14.0176 139.345 15.2316 139.847 16.5677C140.35 17.9038 140.608 19.3358 140.608 20.7819Z" fill="#6C63FF"/>
<path opacity="0.2" d="M137.094 90.1042H34.6847V145.037H137.094V90.1042Z" fill="black"/>
<path d="M371.78 136.68H269.371V191.612H371.78V136.68Z" fill="#F2F2F2"/>
<path d="M137.094 173.368H34.6847V228.301H137.094V173.368Z" fill="#3F3D56"/>
<path d="M126.5 49.4052C131.376 49.4052 135.328 45.0522 135.328 39.6826C135.328 34.313 131.376 29.96 126.5 29.96C121.624 29.96 117.672 34.313 117.672 39.6826C117.672 45.0522 121.624 49.4052 126.5 49.4052Z" fill="white"/>
<path d="M130.473 39.3701H126.783V35.3075H126.216V39.3701H122.527V39.9953H126.216V44.0578H126.783V39.9953H130.473V39.3701Z" fill="#3F3D56"/>
<path d="M360.303 129.388H257.894V184.321H360.303V129.388Z" fill="#3F3D56"/>
<path d="M303.61 166.271C306.291 177.184 315.473 183.943 315.473 183.943C315.473 183.943 320.309 173.008 317.628 162.094C314.948 151.181 305.765 144.422 305.765 144.422C305.765 144.422 300.929 155.357 303.61 166.271Z" fill="white"/>
<path d="M307.549 163.925C314.906 171.811 315.804 183.934 315.804 183.934C315.804 183.934 304.776 183.271 297.42 175.385C290.063 167.499 289.165 155.376 289.165 155.376C289.165 155.376 300.193 156.039 307.549 163.925Z" fill="#6C63FF"/>
<path d="M75.917 211.087C78.5979 222.001 87.7802 228.76 87.7802 228.76C87.7802 228.76 92.6162 217.825 89.9354 206.911C87.2546 195.997 78.0722 189.238 78.0722 189.238C78.0722 189.238 73.2362 200.174 75.917 211.087Z" fill="white"/>
<path d="M79.8563 208.742C87.2125 216.628 88.111 228.751 88.111 228.751C88.111 228.751 77.0828 228.088 69.7266 220.202C62.3704 212.315 61.4719 200.192 61.4719 200.192C61.4719 200.192 72.5001 200.856 79.8563 208.742Z" fill="#6C63FF"/>
<path d="M100.305 211.087C97.6241 222.001 88.4418 228.76 88.4418 228.76C88.4418 228.76 83.6058 217.825 86.2866 206.911C88.9675 195.997 98.1498 189.238 98.1498 189.238C98.1498 189.238 102.986 200.174 100.305 211.087Z" fill="white"/>
<path d="M96.3657 208.742C89.0095 216.628 88.111 228.751 88.111 228.751C88.111 228.751 99.1392 228.088 106.495 220.202C113.852 212.315 114.75 200.192 114.75 200.192C114.75 200.192 103.722 200.856 96.3657 208.742Z" fill="#6C63FF"/>
<path d="M159.165 81.3539H56.7556V136.286H159.165V81.3539Z" fill="#3F3D56"/>
<path d="M108.467 100.189H107.584V136.362H108.467V100.189Z" fill="white"/>
<path d="M108.025 105.79C110.591 105.79 112.67 103.5 112.67 100.675C112.67 97.8493 110.591 95.5591 108.025 95.5591C105.46 95.5591 103.38 97.8493 103.38 100.675C103.38 103.5 105.46 105.79 108.025 105.79Z" fill="#6C63FF"/>
<path d="M108.026 122.483C108.026 122.483 107.362 106.765 93.7588 108.592L108.026 122.483Z" fill="white"/>
</svg>
