<svg width="375" height="349" viewBox="0 0 375 349" fill="none" xmlns="http://www.w3.org/2000/svg">
<path d="M200.686 13.9786V325.029C200.682 328.734 199.324 332.286 196.908 334.906C194.493 337.525 191.219 338.996 187.805 338.998H71.444C69.7524 339.001 68.0768 338.642 66.5133 337.941C64.9498 337.24 63.529 336.212 62.3324 334.914C61.1359 333.616 60.187 332.075 59.5402 330.379C58.8934 328.683 58.5614 326.864 58.5632 325.029V13.9786C58.5631 12.1428 58.8961 10.3251 59.5434 8.62903C60.1907 6.933 61.1395 5.39196 62.3356 4.0939C63.5317 2.79584 64.9517 1.76619 66.5146 1.06376C68.0774 0.361329 69.7525 -0.000127654 71.444 3.11734e-05H88.8572V2.42336C88.8569 5.47582 89.9738 8.40345 91.9623 10.5623C93.9508 12.7212 96.648 13.9345 99.4608 13.9354H158.643C160.907 13.9406 163.112 13.153 164.931 11.6896C165.298 11.3994 165.647 11.0819 165.974 10.7395C167.01 9.66601 167.834 8.37539 168.397 6.94587C168.959 5.51636 169.248 3.97774 169.246 2.42336V3.11734e-05H187.805C189.496 -0.000531246 191.172 0.360651 192.735 1.06294C194.298 1.76523 195.718 2.79486 196.914 4.093C198.11 5.39114 199.059 6.93234 199.706 8.62855C200.353 10.3248 200.686 12.1427 200.686 13.9786Z" fill="#3F3D56"/>
<path d="M90.9797 55.1848C92.6892 55.1848 94.075 53.6809 94.075 51.8257C94.075 49.9705 92.6892 48.4666 90.9797 48.4666C89.2702 48.4666 87.8844 49.9705 87.8844 51.8257C87.8844 53.6809 89.2702 55.1848 90.9797 55.1848Z" fill="#F2F2F2"/>
<path d="M165.974 10.7395C165.647 11.0819 165.298 11.3994 164.931 11.6896C168.721 18.9293 173.857 25.2351 180.012 30.2072C186.167 35.1792 193.207 38.7091 200.686 40.5728V39.0756C193.409 37.2129 186.568 33.733 180.593 28.8558C174.619 23.9785 169.641 17.8099 165.974 10.7395Z" fill="#805AD5"/>
<path d="M139.527 13.9353H138.077C143.226 28.1327 151.718 40.615 162.704 50.1347C173.691 59.6545 186.788 65.8784 200.686 68.1844V66.6968C187.15 64.4155 174.394 58.3517 163.671 49.1012C152.948 39.8507 144.628 27.7318 139.527 13.9353Z" fill="#805AD5"/>
<path d="M112.81 13.9353H111.413C123.1 57.9584 158.364 90.7285 200.686 96.0503V94.5867C159.098 89.289 124.44 57.1426 112.81 13.9353Z" fill="#805AD5"/>
<path d="M80.8093 76.6934H80.0036V75.8191H79.8466V76.6934H79.0405V76.8642H79.8466V77.7385H80.0036V76.8642H80.8093V76.6934Z" fill="#F2F2F2"/>
<path d="M135.198 33.0254H134.392V32.1511H134.235V33.0254H133.429V33.1963H134.235V34.0706H134.392V33.1963H135.198V33.0254Z" fill="#F2F2F2"/>
<path d="M88.7686 111.244H87.9629V110.37H87.806V111.244H86.9999V111.415H87.806V112.289H87.9629V111.415H88.7686V111.244Z" fill="#F2F2F2"/>
<path d="M125.912 85.8109H125.106V84.9366H124.949V85.8109H124.143V85.9817H124.949V86.856H125.106V85.9817H125.912V85.8109Z" fill="#F2F2F2"/>
<path d="M178.974 101.646H178.168V100.772H178.011V101.646H177.205V101.817H178.011V102.692H178.168V101.817H178.974V101.646Z" fill="#F2F2F2"/>
<path d="M169.688 61.9029C170.665 61.9029 171.457 61.0435 171.457 59.9834C171.457 58.9233 170.665 58.064 169.688 58.064C168.712 58.064 167.92 58.9233 167.92 59.9834C167.92 61.0435 168.712 61.9029 169.688 61.9029Z" fill="#FF6584"/>
<path d="M106.324 104.995L105.32 105.163C105.634 107.342 105.881 109.568 106.063 111.771L107.075 111.675C106.894 109.443 106.642 107.198 106.324 104.995Z" fill="#E6E6E6"/>
<path d="M103.578 91.8754L102.605 92.1969C103.193 94.3084 103.719 96.4726 104.166 98.6272L105.161 98.3824C104.705 96.2038 104.17 94.0156 103.578 91.8754Z" fill="#E6E6E6"/>
<path d="M99.1955 79.2933L98.2713 79.754C99.1203 81.7646 99.9163 83.8281 100.637 85.8915L101.588 85.5028C100.858 83.4154 100.058 81.3231 99.1955 79.2933Z" fill="#E6E6E6"/>
<path d="M93.2702 67.4981L92.4124 68.0884C93.5046 69.9502 94.5526 71.8793 95.5254 73.8132L96.4186 73.2853C95.4369 71.3275 94.3757 69.3792 93.2702 67.4981Z" fill="#E6E6E6"/>
<path d="M85.9035 56.6868L85.1296 57.4018C86.4473 59.0813 87.7297 60.8376 88.9413 62.6131L89.7549 61.9557C88.5344 60.161 87.2388 58.3855 85.9035 56.6868Z" fill="#E6E6E6"/>
<path d="M77.2455 47.0606L76.5689 47.8812C78.0901 49.3544 79.5802 50.9043 80.9996 52.4831L81.7292 51.7105C80.2921 50.1125 78.7843 48.5482 77.2455 47.0606Z" fill="#E6E6E6"/>
<path d="M67.4644 38.7973L66.894 39.709C68.5831 40.9423 70.2546 42.2571 71.8597 43.6152L72.4876 42.7466C70.8604 41.3742 69.1712 40.045 67.4644 38.7973Z" fill="#E6E6E6"/>
<path d="M58.5632 33.0581V34.3058C59.62 34.9056 60.668 35.5342 61.6939 36.1772L62.2024 35.2223C61.0085 34.4737 59.7954 33.7523 58.5632 33.0581Z" fill="#E6E6E6"/>
<path d="M106.094 208.648C106.259 207.575 106.41 206.479 106.542 205.392L107.55 205.537C107.416 206.636 107.263 207.744 107.097 208.829L106.094 208.648Z" fill="#E6E6E6"/>
<path d="M103.26 221.594L104.231 221.923C104.841 219.79 105.393 217.606 105.871 215.429L104.881 215.175C104.407 217.328 103.865 219.485 103.26 221.594Z" fill="#E6E6E6"/>
<path d="M98.8196 233.99L99.7421 234.459C100.619 232.44 101.44 230.36 102.185 228.277L101.236 227.875C100.5 229.935 99.688 231.993 98.8196 233.99Z" fill="#E6E6E6"/>
<path d="M92.845 245.619L93.6976 246.22C94.8222 244.348 95.901 242.408 96.9054 240.457L96.0187 239.917C95.0275 241.847 93.9573 243.765 92.845 245.619Z" fill="#E6E6E6"/>
<path d="M85.4532 256.243L86.2238 256.967C87.5765 255.274 88.888 253.513 90.131 251.732L89.3168 251.071C88.0912 252.831 86.7928 254.571 85.4532 256.243Z" fill="#E6E6E6"/>
<path d="M76.7975 265.67L77.4671 266.499C79.0219 265.027 80.5423 263.474 81.9952 261.896L81.276 261.114C79.8396 262.676 78.3323 264.208 76.7975 265.67Z" fill="#E6E6E6"/>
<path d="M67.046 273.727L67.6077 274.65C69.3245 273.42 71.0296 272.108 72.6654 270.757L72.0507 269.876C70.4305 271.216 68.7463 272.512 67.046 273.727Z" fill="#E6E6E6"/>
<path d="M62.3174 278.155C61.0881 278.909 59.8323 279.638 58.5632 280.329V279.091C59.6598 278.486 60.7476 277.848 61.8133 277.2L62.3174 278.155Z" fill="#E6E6E6"/>
<path d="M106.392 118.578L107.408 118.558C107.427 119.672 107.428 120.791 107.413 121.886L106.396 121.869C106.412 120.787 106.41 119.679 106.392 118.578Z" fill="#E6E6E6"/>
<path d="M63.0293 144.743H167.035C174.775 144.743 182.199 148.08 187.672 154.02C193.145 159.959 196.219 168.015 196.219 176.415V180.607H92.2134C84.4733 180.607 77.0502 177.27 71.5771 171.331C66.104 165.391 63.0293 157.335 63.0293 148.936V144.743Z" fill="white"/>
<path d="M132.054 338.557C131.953 338.377 129.56 334.041 128.73 325.038C127.969 316.778 128.459 302.855 135.112 283.434C147.717 246.643 132.207 216.957 132.049 216.661L132.814 216.179C132.854 216.254 136.856 223.823 139.221 235.875C142.344 251.853 141.207 268.467 135.941 283.769C123.358 320.498 132.713 337.885 132.809 338.057L132.054 338.557Z" fill="#F2F2F2"/>
<path d="M127.125 214.501C130.3 214.501 132.874 211.708 132.874 208.262C132.874 204.817 130.3 202.024 127.125 202.024C123.951 202.024 121.377 204.817 121.377 208.262C121.377 211.708 123.951 214.501 127.125 214.501Z" fill="#805AD5"/>
<path d="M145.255 237.534C148.43 237.534 151.003 234.741 151.003 231.296C151.003 227.851 148.43 225.058 145.255 225.058C142.08 225.058 139.506 227.851 139.506 231.296C139.506 234.741 142.08 237.534 145.255 237.534Z" fill="#F2F2F2"/>
<path d="M132.874 252.89C136.048 252.89 138.622 250.097 138.622 246.652C138.622 243.207 136.048 240.414 132.874 240.414C129.699 240.414 127.125 243.207 127.125 246.652C127.125 250.097 129.699 252.89 132.874 252.89Z" fill="#805AD5"/>
<path d="M147.908 265.847C151.083 265.847 153.656 263.054 153.656 259.608C153.656 256.163 151.083 253.37 147.908 253.37C144.733 253.37 142.16 256.163 142.16 259.608C142.16 263.054 144.733 265.847 147.908 265.847Z" fill="#805AD5"/>
<path d="M128.452 286.001C131.627 286.001 134.2 283.208 134.2 279.763C134.2 276.317 131.627 273.524 128.452 273.524C125.277 273.524 122.703 276.317 122.703 279.763C122.703 283.208 125.277 286.001 128.452 286.001Z" fill="#F2F2F2"/>
<path d="M135.527 338.786C135.527 338.786 129.778 323.431 147.024 311.914L135.527 338.786Z" fill="#F2F2F2"/>
<path d="M128.457 338.508C128.457 338.508 125.841 322.178 105.592 322.318L128.457 338.508Z" fill="#F2F2F2"/>
<path opacity="0.2" d="M105.572 201.064C125.109 201.064 140.946 183.877 140.946 162.675C140.946 141.473 125.109 124.286 105.572 124.286C86.0349 124.286 70.1971 141.473 70.1971 162.675C70.1971 183.877 86.0349 201.064 105.572 201.064Z" fill="#805AD5"/>
<path opacity="0.2" d="M105.572 189.71C119.33 189.71 130.484 177.606 130.484 162.675C130.484 147.744 119.33 135.64 105.572 135.64C91.8134 135.64 80.66 147.744 80.66 162.675C80.66 177.606 91.8134 189.71 105.572 189.71Z" fill="#805AD5"/>
<path d="M105.572 180.518C114.652 180.518 122.014 172.529 122.014 162.675C122.014 152.821 114.652 144.832 105.572 144.832C96.4912 144.832 89.13 152.821 89.13 162.675C89.13 172.529 96.4912 180.518 105.572 180.518Z" fill="#805AD5"/>
<path d="M108.561 158.827C108.561 158.279 108.434 157.74 108.19 157.261C107.947 156.781 107.596 156.376 107.169 156.084C106.743 155.791 106.255 155.62 105.752 155.587C105.248 155.554 104.745 155.66 104.289 155.895C103.834 156.13 103.44 156.486 103.145 156.931C102.851 157.375 102.664 157.893 102.604 158.437C102.543 158.98 102.611 159.532 102.799 160.039C102.988 160.547 103.292 160.995 103.683 161.341L102.582 169.704H108.561L107.46 161.341C107.805 161.037 108.082 160.653 108.272 160.219C108.463 159.784 108.562 159.308 108.561 158.827Z" fill="white"/>
<path d="M270.807 25.577C270.807 25.577 260.946 15.9821 247.684 34.0647C234.422 52.1474 213.678 61.0042 208.918 68.0159C208.918 68.0159 228.641 59.1591 235.442 55.4687C242.243 51.7784 241.903 52.5165 241.903 52.5165C241.903 52.5165 232.721 59.5281 231.021 66.5397C229.321 73.5514 230.681 79.4559 227.621 86.4676C224.56 93.4792 286.11 91.2651 286.11 91.2651C286.11 91.2651 292.231 79.825 290.531 68.0159C288.83 56.2068 289.851 27.0531 270.807 25.577Z" fill="#2F2E41"/>
<path d="M252.155 55.7616C252.155 55.7616 254.299 72.0515 245.109 75.7085C235.919 79.3654 239.289 84.3521 239.289 84.3521L253.074 91.666L267.778 86.6793L272.68 78.7005C272.68 78.7005 264.715 76.7058 266.859 70.7217C269.004 64.7377 269.616 62.743 269.616 62.743L252.155 55.7616Z" fill="#FFB9B9"/>
<path opacity="0.1" d="M252.155 55.7616C252.155 55.7616 254.299 72.0515 245.109 75.7085C235.919 79.3654 239.289 84.3521 239.289 84.3521L253.074 91.666L267.778 86.6793L272.68 78.7005C272.68 78.7005 264.715 76.7058 266.859 70.7217C269.004 64.7377 269.616 62.743 269.616 62.743L252.155 55.7616Z" fill="black"/>
<path d="M290.754 102.304C290.754 102.304 288.609 132.89 289.222 134.219C289.835 135.549 289.222 181.759 289.222 181.759C289.222 181.759 293.511 206.693 287.997 208.023C282.483 209.353 283.708 180.097 283.708 180.097L278.194 141.533L278.807 103.302L290.754 102.304Z" fill="#FFB9B9"/>
<path opacity="0.1" d="M290.754 102.304C290.754 102.304 288.609 132.89 289.222 134.219C289.835 135.549 289.222 181.759 289.222 181.759C289.222 181.759 293.511 206.693 287.997 208.023C282.483 209.353 283.708 180.097 283.708 180.097L278.194 141.533L278.807 103.302L290.754 102.304Z" fill="black"/>
<path d="M231.017 194.392C231.017 194.392 220.908 235.948 221.214 256.228C221.521 276.507 225.503 304.765 225.503 304.765C225.503 304.765 226.116 317.066 225.197 318.395C224.278 319.725 229.792 325.377 229.792 325.377L235.613 321.72L237.757 319.06V316.733C237.757 316.733 234.387 305.43 237.144 296.454C239.901 287.478 241.433 264.871 238.676 257.89L257.669 196.72L231.017 194.392Z" fill="#FFB9B9"/>
<path d="M230.405 320.058C230.405 320.058 226.729 315.071 224.278 316.733C221.827 318.395 217.845 329.699 217.845 329.699C217.845 329.699 204.059 343.994 213.862 344.659C223.665 345.324 227.954 341.667 229.179 339.007C230.405 336.348 241.739 329.366 241.739 329.366C241.739 329.366 240.514 316.733 238.676 316.401C236.838 316.068 234.081 321.387 234.081 321.387L230.405 320.058Z" fill="#2F2E41"/>
<path d="M264.409 197.052V238.275C264.444 243.277 264.751 248.273 265.328 253.236C266.247 260.55 260.12 315.071 260.12 315.071L260.732 324.712L268.391 324.047L269.31 315.736L280.338 279.167C280.338 279.167 284.014 256.893 282.176 248.581C280.338 240.27 291.673 187.079 291.673 187.079L264.409 197.052Z" fill="#FFB9B9"/>
<path d="M258.282 322.385L260.551 321.85C260.551 321.85 262.264 317.731 264.409 318.728C265.918 319.483 267.347 320.413 268.673 321.501L269.616 323.382C269.616 323.382 271.761 328.369 274.518 331.693C277.275 335.018 280.338 342.332 275.743 342.997C271.148 343.661 265.021 343.994 263.183 342.332C261.345 340.669 262.571 338.01 260.732 337.345C258.894 336.68 257.363 334.685 257.669 334.02C257.975 333.356 258.282 322.385 258.282 322.385Z" fill="#2F2E41"/>
<path d="M264.409 67.2124C271.928 67.2124 278.023 60.5973 278.023 52.4371C278.023 44.277 271.928 37.6619 264.409 37.6619C256.889 37.6619 250.794 44.277 250.794 52.4371C250.794 60.5973 256.889 67.2124 264.409 67.2124Z" fill="#FFB9B9"/>
<path d="M238.676 78.3681L242.722 76.835C242.722 76.835 241.127 79.6979 249.704 81.3601C258.282 83.0224 267.165 83.6108 271.148 78.1637C271.148 78.1637 272.68 77.3707 274.824 79.6979C276.969 82.025 278.194 81.3601 278.194 81.3601L276.662 90.0038L273.599 105.961L269.616 117.929L258.282 115.27L246.028 105.629L241.433 92.6633V80.6952L238.676 78.3681Z" fill="#805AD5"/>
<path d="M276.05 83.0223L279.113 80.6952C279.113 80.6952 289.529 82.6899 290.141 88.0091L282.176 104.631C283.801 109.257 283.691 114.388 281.87 118.927C278.807 126.573 279.113 128.235 279.113 128.235L276.969 138.209L238.063 141.533C238.063 141.533 236.532 137.544 235.919 136.879C235.306 136.214 235.306 133.887 235.919 133.887C236.532 133.887 235.919 132.889 235.306 131.892C234.694 130.895 234.387 130.562 235.306 129.233C236.225 127.903 233.774 115.935 233.774 115.935V102.969L223.359 88.0091C223.359 88.0091 227.035 82.025 228.873 81.3601C230.711 80.6952 239.455 78.0731 239.455 78.0731L241.433 81.2344L244.19 105.296L248.172 119.924L264.941 116.832L271.454 104.964L275.743 91.0011L276.05 83.0223Z" fill="#805AD5"/>
<path d="M287.691 86.0144L290.141 88.009C290.141 88.009 292.286 106.626 291.673 107.956C291.06 109.286 280.338 110.616 280.032 109.951C279.726 109.286 287.691 86.0144 287.691 86.0144Z" fill="#805AD5"/>
<path d="M237.144 76.7058L240.208 98.6474C240.208 98.6474 237.451 131.227 238.063 137.876L238.676 139.871C238.676 139.871 237.451 139.206 237.144 140.536C236.838 141.866 237.144 146.187 237.144 146.187C237.144 146.187 235.306 148.182 234.693 159.153C234.081 170.124 226.729 196.387 229.486 197.384C232.243 198.382 248.785 203.368 257.669 202.371C266.553 201.374 298.412 189.738 298.106 186.746C297.8 183.754 282.483 141.533 282.483 141.533C282.483 141.533 279.726 136.546 279.726 135.882C279.726 135.217 283.402 132.557 282.483 129.897C281.564 127.238 276.662 99.3123 276.662 99.3123L280.032 79.3654L275.437 78.0356L272.067 97.3176C272.067 97.3176 258.894 104.299 245.109 97.9825L242.046 75.376L237.144 76.7058Z" fill="#2F2E41"/>
<path d="M251.883 41.8334C251.883 41.8334 274.552 58.7882 280.679 51.1419C286.806 43.4956 269.957 36.8467 269.957 36.8467L255.866 35.1844L251.883 41.8334Z" fill="#2F2E41"/>
<path d="M216.661 222.199C218.994 224.084 221.881 224.98 224.78 224.721C227.679 224.461 230.391 223.063 232.408 220.789C234.425 218.514 235.609 215.52 235.737 212.366C235.865 209.212 234.929 206.116 233.104 203.658C231.279 201.2 228.69 199.549 225.824 199.013C222.957 198.478 220.009 199.096 217.532 200.751C215.055 202.406 213.219 204.984 212.368 208.003C211.518 211.022 211.711 214.274 212.912 217.149L181.646 245.399L177.484 240.038L175.613 241.395L173.532 238.714L175.242 237.15L173.16 234.47L170.5 236.902L171.781 238.552L168.931 241.158L167.65 239.509L163.469 243.331L165.39 245.806L166.911 244.416L168.992 247.097L167.092 248.834L170.934 253.784L166.374 257.954L171.017 263.934L216.661 222.199ZM224.467 203.248C226.026 203.392 227.509 204.035 228.731 205.094C229.952 206.154 230.857 207.583 231.33 209.2C231.804 210.818 231.824 212.551 231.39 214.182C230.955 215.812 230.085 217.266 228.889 218.359C227.693 219.453 226.225 220.137 224.671 220.325C223.117 220.513 221.546 220.197 220.157 219.417C218.769 218.636 217.625 217.426 216.87 215.94C216.115 214.454 215.783 212.758 215.916 211.067C216.095 208.799 217.096 206.702 218.699 205.235C220.303 203.769 222.378 203.054 224.467 203.248V203.248Z" fill="#805AD5"/>
<path d="M221.215 106.294C221.215 106.294 223.359 136.879 222.746 138.209C222.134 139.538 222.746 185.749 222.746 185.749C222.746 185.749 218.457 210.682 223.972 212.012C229.486 213.342 228.26 184.086 228.26 184.086L233.775 145.523L233.162 107.291L221.215 106.294Z" fill="#FFB9B9"/>
<path d="M225.81 87.0117L223.359 88.0091C223.359 88.0091 218.764 108.953 219.989 108.953C221.214 108.953 235.919 110.948 235.919 110.283C235.919 109.618 233.162 93.3282 233.162 93.3282L225.81 87.0117Z" fill="#805AD5"/>
<g opacity="0.1">
<path opacity="0.1" d="M265.441 264.392C264.76 267.575 263.819 270.699 262.627 273.734C262.834 273.332 263.007 272.91 263.172 272.491C264.372 269.444 265.318 266.307 266 263.111C266.853 259.124 267.179 254.61 264.695 251.342C264.097 250.562 263.328 249.718 263.355 248.804C263.133 249.08 262.961 249.391 262.846 249.724C262.547 250.782 263.462 251.747 264.133 252.626C266.617 255.888 266.29 260.408 265.441 264.392Z" fill="black"/>
<path opacity="0.1" d="M263.887 247.558C264.127 247.266 264.306 246.93 264.414 246.57C264.46 246.135 264.448 245.695 264.378 245.263C264.148 245.433 263.975 245.666 263.881 245.934C263.705 246.453 263.908 247.016 263.887 247.558Z" fill="black"/>
<path opacity="0.1" d="M281.724 273.962C281.526 274.26 281.254 274.504 280.934 274.672C280.515 274.816 280.063 274.839 279.632 274.736C277.63 274.443 275.442 273.839 273.67 274.786C272.71 275.296 271.965 276.222 270.896 276.457C269.128 276.844 267.619 275.182 265.871 274.698C264.632 274.361 263.328 274.639 262.08 274.991C261.832 275.509 261.497 275.983 261.089 276.392C262.466 276.005 263.929 275.616 265.309 275.991C267.057 276.466 268.565 278.128 270.337 277.75C271.402 277.518 272.15 276.592 273.108 276.079C274.903 275.132 277.067 275.727 279.069 276.032C279.501 276.131 279.952 276.109 280.371 275.967C280.691 275.799 280.963 275.554 281.161 275.255C281.703 274.554 282.122 273.77 282.4 272.933C282.2 273.292 281.974 273.636 281.724 273.962Z" fill="black"/>
</g>
</svg>
