<svg width="370" height="300" viewBox="0 0 370 300" fill="none" xmlns="http://www.w3.org/2000/svg">
<path d="M84.6774 299.785C115.929 299.785 141.263 296.643 141.263 292.767C141.263 288.892 115.929 285.75 84.6774 285.75C53.4262 285.75 28.092 288.892 28.092 292.767C28.092 296.643 53.4262 299.785 84.6774 299.785Z" fill="#F2F2F2"/>
<path d="M203.868 299.785C235.119 299.785 260.453 296.643 260.453 292.767C260.453 288.892 235.119 285.75 203.868 285.75C172.617 285.75 147.282 288.892 147.282 292.767C147.282 296.643 172.617 299.785 203.868 299.785Z" fill="#F2F2F2"/>
<path d="M277.577 168.418L282.525 137.737L220.744 124.273L223.28 46.0112H193.045L190.721 117.731L107.553 99.6064L109.29 46.0112H79.0547L77.5299 93.0636L16.7644 79.8214L11.8161 110.502L76.508 124.6L74.5368 185.428L4.94831 170.263L0 200.944L73.5148 216.965L71.0615 292.67H101.297L103.538 223.507L186.706 241.632L185.052 292.67H215.287L216.729 248.174L265.761 258.86L270.709 228.179L217.751 216.638L219.722 155.81L277.577 168.418ZM187.728 210.095L104.56 191.971L106.531 131.143L189.699 149.267L187.728 210.095Z" fill="#3F3D56"/>
<path opacity="0.2" d="M196.068 210.095L198.04 149.267L114.872 131.143L114.813 132.948L189.699 149.267L187.786 208.29L196.068 210.095Z" fill="black"/>
<path opacity="0.2" d="M199.062 117.731L201.386 46.011H193.045L190.779 115.926L199.062 117.731Z" fill="black"/>
<path opacity="0.2" d="M228.063 155.81L228.004 157.615L277.577 168.418L277.861 166.662L228.063 155.81Z" fill="black"/>
<path opacity="0.2" d="M85.8709 93.0635L87.3955 46.011H79.0546L77.5886 91.2587L85.8709 93.0635Z" fill="black"/>
<path opacity="0.2" d="M225.07 248.174L225.011 249.979L265.761 258.86L266.044 257.104L225.07 248.174Z" fill="black"/>
<path opacity="0.2" d="M111.879 223.507L111.82 225.312L186.706 241.632L185.052 292.67H193.392L195.047 241.632L111.879 223.507Z" fill="black"/>
<path opacity="0.2" d="M74.5952 183.623L82.8775 185.428L84.8488 124.601L20.1568 110.503L24.8217 81.5774L16.7645 79.8213L11.8159 110.503L76.5078 124.601L74.5952 183.623Z" fill="black"/>
<path opacity="0.2" d="M8.34092 200.944L13.0058 172.019L4.94821 170.263L0 200.944L73.5148 216.965L71.0616 292.67H79.4021L81.8557 216.965L8.34092 200.944Z" fill="black"/>
<path d="M325.229 48.0279H294.549V101.924H325.229V48.0279Z" fill="#2F2E41"/>
<path d="M331.36 45.7641C328.045 55.8594 322.962 65.0578 312.603 65.0578C302.244 65.0578 294.43 56.4028 293.846 45.7641C293.1 32.1699 302.005 26.414 312.603 26.4703C325.123 26.5369 335.294 33.7833 331.36 45.7641Z" fill="#2F2E41"/>
<path d="M300.085 121.521L289.251 163.441C289.251 163.441 274.807 167.155 276.355 170.869C277.902 174.584 293.378 168.216 293.378 168.216L307.307 133.194L300.085 121.521Z" fill="#FFB9B9"/>
<path d="M308.854 259.485C308.854 259.485 318.656 269.567 312.466 276.465H325.362L317.108 255.24L308.854 259.485Z" fill="#FFB9B9"/>
<path d="M318.96 276.127C318.96 276.127 318.96 271.77 314.828 274.384C310.696 276.999 297.382 283.971 297.382 283.971C297.382 283.971 288.199 289.2 301.514 290.072C314.828 290.944 327.684 287.893 327.684 286.15C327.684 284.407 326.306 276.06 326.306 276.06C326.306 276.06 323.552 279.178 318.96 276.127Z" fill="#2F2E41"/>
<path d="M320.719 267.975L320.204 285.486L330.005 287.078V270.098L320.719 267.975Z" fill="#FFB9B9"/>
<path d="M311.434 68.9879C319.126 68.9879 325.362 62.5734 325.362 54.6608C325.362 46.7481 319.126 40.3337 311.434 40.3337C303.741 40.3337 297.505 46.7481 297.505 54.6608C297.505 62.5734 303.741 68.9879 311.434 68.9879Z" fill="#FFB9B9"/>
<path d="M306.533 66.0694C306.533 66.0694 313.239 81.9884 308.081 87.2947C302.922 92.601 315.819 87.2947 315.819 87.2947C315.819 87.2947 322.525 77.2127 327.684 76.682C327.684 76.682 319.946 72.437 320.462 61.2937L306.533 66.0694Z" fill="#FFB9B9"/>
<path d="M297.505 143.276L296.474 168.216C296.474 168.216 277.902 218.096 285.124 229.77C292.347 241.444 309.37 262.669 309.37 262.669C309.37 262.669 319.172 257.893 319.172 255.24C319.172 255.24 309.37 230.3 301.116 224.463C301.116 224.463 301.632 214.381 309.37 203.769L316.593 229.77L319.688 269.567C319.688 269.567 328.458 272.751 331.553 271.159C331.553 271.159 338.259 245.689 333.616 230.831L332.584 189.972C332.584 189.972 345.997 169.808 328.973 145.93L326.394 137.44C326.394 137.44 300.085 140.093 297.505 143.276Z" fill="#2F2E41"/>
<path d="M321.751 282.833C321.751 282.833 321.751 277.527 317.108 280.71C312.466 283.894 297.505 292.384 297.505 292.384C297.505 292.384 287.188 298.752 302.148 299.813C317.108 300.875 331.553 297.16 331.553 295.038C331.553 292.915 330.005 282.751 330.005 282.751C330.005 282.751 326.91 286.547 321.751 282.833Z" fill="#2F2E41"/>
<path d="M310.66 85.7028L326.871 76.1417C326.871 76.1417 350.898 76.682 349.35 89.4172C349.35 89.4172 344.707 105.867 343.16 104.275L340.065 101.091C340.065 101.091 328.715 124.97 328.715 129.745C328.669 132.818 328.146 135.863 327.168 138.766L299.311 143.011C299.311 143.011 302.406 124.97 297.763 121.786C293.12 118.602 291.573 110.112 296.216 102.683C297.981 99.8303 299.515 96.8331 300.802 93.7217C301.613 91.7917 302.787 90.046 304.258 88.5857C305.728 87.1254 307.466 85.9794 309.369 85.2138L310.66 85.7028Z" fill="#6C63FF"/>
<path d="M346.771 87.8253C346.771 87.8253 374.112 110.643 369.469 115.418C364.826 120.194 339.549 139.297 339.549 139.297C339.549 139.297 336.969 155.216 331.811 154.685C326.652 154.154 332.842 135.052 332.842 135.052L354.509 113.826L342.644 101.091L346.771 87.8253Z" fill="#FFB9B9"/>
<path d="M312.603 30.5322C316.692 30.5322 320.007 27.1224 320.007 22.9162C320.007 18.7101 316.692 15.3003 312.603 15.3003C308.514 15.3003 305.199 18.7101 305.199 22.9162C305.199 27.1224 308.514 30.5322 312.603 30.5322Z" fill="#2F2E41"/>
<path d="M303.718 18.8544C303.718 16.9664 304.4 15.1458 305.632 13.7457C306.863 12.3456 308.556 11.4658 310.382 11.2769C310.138 11.252 309.891 11.2384 309.642 11.2384C307.678 11.2384 305.795 12.0408 304.406 13.4691C303.017 14.8974 302.237 16.8345 302.237 18.8544C302.237 20.8743 303.017 22.8114 304.406 24.2397C305.795 25.6679 307.678 26.4703 309.642 26.4703C309.891 26.4703 310.138 26.4568 310.382 26.4319C308.556 26.243 306.863 25.3632 305.632 23.9631C304.4 22.5629 303.718 20.7423 303.718 18.8544Z" fill="#2F2E41"/>
<path d="M304.062 39.3724C304.062 39.3724 303.907 38.4871 297.861 40.8195C291.814 43.1518 288.19 60.3634 291.213 70.4702C292.431 74.5432 291.44 77.4798 289.822 79.5345C283.752 87.245 286.142 98.826 294.984 102.791C295.233 102.903 295.488 103.014 295.748 103.123L299.527 105.455C299.527 105.455 294.709 98.935 297.12 90.5944C299.214 83.4879 299.472 75.9431 297.87 68.7026C297.594 67.4812 297.28 66.2221 296.923 64.9373C293.899 54.053 295.37 55.31 305.951 44.4258C305.951 44.4258 311.998 49.0904 317.288 51.4228C322.579 53.7551 327.114 56.0875 323.335 63.8619C319.556 71.6364 310.486 78.6334 316.533 88.7402C322.579 98.8469 323.335 94.9597 322.579 98.8469L321.823 102.734L326.358 98.0695L323.335 104.289C323.335 104.289 333.161 104.289 336.184 96.5146L337.696 98.0695C337.696 98.0695 343.742 87.1853 332.405 77.0785C332.405 77.0785 328.626 74.7461 333.916 66.9717C339.207 59.1972 335.144 42.4822 328.341 39.3724C321.539 36.2626 304.062 39.3724 304.062 39.3724Z" fill="#2F2E41"/>
<path d="M155.08 16.7485L147.423 13.6409L139.766 10.5334L146.211 5.2669L152.656 0L153.868 8.37446L155.08 16.7485Z" fill="#F2F2F2"/>
<path d="M148.987 75.9398L141.331 72.8322L133.674 69.7242L139.754 65.4093L145.833 61.0943L147.411 68.5168L148.987 75.9398Z" fill="#F2F2F2"/>
<path d="M135.817 155.449L128.16 152.341L120.503 149.234L126.948 143.967L133.393 138.701L134.605 147.075L135.817 155.449Z" fill="#F2F2F2"/>
<path d="M55.5315 245.339L48.3002 249.383L41.0689 253.428L41.2792 244.964L41.4899 236.5L48.5105 240.919L55.5315 245.339Z" fill="#F2F2F2"/>
<path d="M48.3078 55.4513L41.0766 59.4955L33.8453 63.5401L34.0556 55.0761L34.2663 46.6125L41.2869 51.0319L48.3078 55.4513Z" fill="#F2F2F2"/>
<path d="M85.0174 279.799C89.9575 288.465 99.9208 291.896 99.9208 291.896C99.9208 291.896 101.875 281.277 96.9346 272.611C91.9945 263.945 82.0312 260.515 82.0312 260.515C82.0312 260.515 80.0773 271.133 85.0174 279.799Z" fill="#F2F2F2"/>
<path d="M88.1 281.775C96.6434 286.642 100.222 296.803 100.222 296.803C100.222 296.803 89.95 299.073 81.4067 294.206C72.8634 289.339 69.2843 279.177 69.2843 279.177C69.2843 279.177 79.5567 276.907 88.1 281.775Z" fill="#6C63FF"/>
<path d="M242.402 272.621C236.664 280.75 237.602 291.515 237.602 291.515C237.602 291.515 247.843 289.099 253.581 280.97C259.319 272.841 258.381 262.077 258.381 262.077C258.381 262.077 248.14 264.492 242.402 272.621Z" fill="#6C63FF"/>
<path d="M246.331 274.314C245.421 284.316 237.806 291.762 237.806 291.762C237.806 291.762 231.666 282.991 232.577 272.989C233.487 262.987 241.102 255.542 241.102 255.542C241.102 255.542 247.242 264.312 246.331 274.314Z" fill="#6C63FF"/>
<path d="M343.124 83.4783L341.117 99.1647L343.124 104.118C343.124 104.118 351.953 92.9727 349.144 86.7807C346.335 80.5887 343.124 83.4783 343.124 83.4783Z" fill="#6C63FF"/>
</svg>
