<svg width="375" height="320" viewBox="0 0 375 320" fill="none" xmlns="http://www.w3.org/2000/svg">
<g clip-path="url(#clip0)">
<path d="M229.463 306.051C318.125 306.051 390 237.539 390 153.026C390 68.5119 318.125 0 229.463 0C140.801 0 68.9266 68.5119 68.9266 153.026C68.9266 237.539 140.801 306.051 229.463 306.051Z" fill="#F2F2F2"/>
<path d="M377.519 300.308C377.519 306.652 289.65 320 181.259 320C72.8683 320 -15 306.652 -15 300.308C-15 293.964 72.8683 297.026 181.259 297.026C289.65 297.026 377.519 293.964 377.519 300.308Z" fill="#3F3D56"/>
<path opacity="0.1" d="M377.519 300.308C377.519 306.652 289.65 320 181.259 320C72.8683 320 -15 306.652 -15 300.308C-15 293.964 72.8683 297.026 181.259 297.026C289.65 297.026 377.519 293.964 377.519 300.308Z" fill="black"/>
<path d="M181.259 311.795C289.65 311.795 377.519 306.652 377.519 300.308C377.519 293.964 289.65 288.821 181.259 288.821C72.8683 288.821 -15 293.964 -15 300.308C-15 306.652 72.8683 311.795 181.259 311.795Z" fill="#3F3D56"/>
<path d="M295.825 245.913C295.825 271.843 312.89 292.825 333.98 292.825L295.825 245.913Z" fill="#3F3D56"/>
<path d="M333.98 292.825C333.98 266.604 353.024 245.386 376.559 245.386L333.98 292.825Z" fill="#6C63FF"/>
<path d="M309.649 248.263C309.649 272.894 320.532 292.825 333.98 292.825L309.649 248.263Z" fill="#6C63FF"/>
<path d="M333.98 292.825C333.98 259.32 355.992 232.208 383.195 232.208L333.98 292.825Z" fill="#3F3D56"/>
<path d="M325.953 293.156C325.953 293.156 331.364 292.997 332.995 291.89C334.626 290.783 341.319 289.461 341.723 291.236C342.128 293.012 349.855 300.066 343.746 300.113C337.637 300.16 329.551 299.206 327.924 298.26C326.296 297.315 325.953 293.156 325.953 293.156Z" fill="#A8A8A8"/>
<path opacity="0.2" d="M343.855 299.495C337.746 299.542 329.66 298.588 328.033 297.643C326.793 296.923 326.299 294.34 326.134 293.149C326.02 293.154 325.953 293.156 325.953 293.156C325.953 293.156 326.296 297.315 327.924 298.261C329.551 299.206 337.637 300.16 343.746 300.113C345.509 300.099 346.119 299.501 346.085 298.615C345.84 299.15 345.168 299.485 343.855 299.495Z" fill="black"/>
<path d="M231.458 96.5398C231.458 96.5398 236.964 107.561 234.762 112.809C232.559 118.057 243.02 123.83 243.02 123.83L256.785 116.483V107.036L254.582 102.838C254.582 102.838 245.773 98.1142 246.874 90.7669C247.975 83.4195 231.458 96.5398 231.458 96.5398Z" fill="#FFB9B9"/>
<path opacity="0.1" d="M231.458 96.5398C231.458 96.5398 236.964 107.561 234.762 112.809C232.559 118.057 243.02 123.83 243.02 123.83L256.785 116.483V107.036L254.582 102.838C254.582 102.838 245.773 98.1142 246.874 90.7669C247.975 83.4195 231.458 96.5398 231.458 96.5398Z" fill="black"/>
<path d="M220.997 142.723C220.997 142.723 219.896 154.269 219.896 155.844C219.896 157.418 218.244 162.666 218.244 162.666C218.244 162.666 212.188 189.432 208.334 192.056C204.48 194.68 202.278 210.949 208.334 209.899C214.39 208.85 216.042 194.68 216.042 194.68L228.578 172.117L230.357 144.823L220.997 142.723Z" fill="#FFB9B9"/>
<path d="M225.402 119.632H220.997C220.997 119.632 216.593 144.823 220.997 145.872C225.402 146.922 233.661 146.922 233.661 146.922L225.402 119.632Z" fill="#575A89"/>
<path d="M250.178 281.799L252.38 291.77L256.785 288.621L254.582 279.7L250.178 281.274V281.799Z" fill="#FFB9B9"/>
<path d="M230.357 175.262L227.054 177.361C227.054 177.361 225.402 195.729 229.256 209.899C233.11 224.069 235.863 240.863 235.863 240.863C235.863 240.863 242.47 282.848 244.121 283.898C245.773 284.948 256.234 285.472 256.785 283.373C257.335 281.274 252.931 241.913 252.931 241.913C252.931 241.913 249.627 208.85 252.38 204.651C252.38 204.651 261.189 240.863 263.942 244.537C263.942 244.537 267.796 284.423 269.998 285.472C272.201 286.522 282.662 287.047 283.212 284.948C283.763 282.848 279.909 237.714 278.257 234.041C276.605 230.367 276.055 175.787 272.201 176.311C268.347 176.836 230.357 175.262 230.357 175.262Z" fill="#2F2E41"/>
<path d="M236.964 101.263C243.958 101.263 249.627 95.8589 249.627 89.1924C249.627 82.526 243.958 77.1217 236.964 77.1217C229.97 77.1217 224.301 82.526 224.301 89.1924C224.301 95.8589 229.97 101.263 236.964 101.263Z" fill="#FFB9B9"/>
<path d="M241.919 115.958L239.166 111.235C239.166 111.235 235.863 107.036 234.211 108.086C232.559 109.135 232.559 112.809 232.559 112.809C232.559 112.809 219.896 117.007 220.997 122.78C222.099 128.553 229.256 138.525 229.256 138.525C229.256 138.525 230.357 146.922 229.256 149.021C228.155 151.12 225.953 152.695 227.604 154.794C229.256 156.893 229.807 157.418 229.256 160.042C228.705 162.666 227.604 163.716 228.705 164.765C229.807 165.815 228.155 176.836 227.054 177.361C225.953 177.886 262.29 183.134 265.043 181.559C267.796 179.985 275.504 179.985 274.954 178.411C274.403 176.836 272.201 167.39 272.201 165.815C272.201 164.241 272.201 157.418 271.65 156.893C271.1 156.368 272.201 148.496 272.201 148.496L269.448 126.454L278.257 113.334C278.257 113.334 276.055 105.986 265.594 104.937C255.133 103.887 252.239 101.263 252.239 101.263C252.239 101.263 251.279 105.986 249.077 107.036C246.874 108.086 241.919 115.958 241.919 115.958Z" fill="#575A89"/>
<path d="M282.111 130.128L285.414 153.744L278.257 187.857C278.257 187.857 275.504 207.275 269.998 206.75C264.493 206.226 269.998 185.758 269.998 185.758L274.403 153.744C274.403 153.744 267.245 137.475 268.897 135.376C270.549 133.277 282.111 130.128 282.111 130.128Z" fill="#FFB9B9"/>
<path d="M255.133 287.047C255.133 287.047 247.975 283.373 246.324 283.898C244.672 284.423 243.02 291.77 243.02 291.77C243.02 291.77 230.357 300.692 238.616 302.791C246.874 304.891 250.178 300.167 250.178 300.167C250.178 300.167 258.436 295.969 258.436 294.919C258.436 293.869 257.335 287.047 257.335 287.047H255.133Z" fill="#2F2E41"/>
<path d="M271.65 284.423C271.65 284.423 268.347 301.742 270.549 302.791C272.751 303.841 282.111 305.415 283.212 302.791C284.313 300.167 284.313 293.869 283.763 291.77C283.212 289.671 281.56 284.423 281.56 284.423H271.65Z" fill="#2F2E41"/>
<path d="M234.755 70.1001C234.262 69.9591 233.739 69.944 233.238 70.0563C232.606 70.2529 232.191 70.8096 231.709 71.2458C230.447 72.3885 228.643 72.7461 226.997 73.2874C225.351 73.8288 223.62 74.7867 223.207 76.3992C223.108 77.0481 223.048 77.702 223.028 78.3576C222.783 80.2598 221.261 81.9727 221.533 83.8716C221.71 85.1122 222.638 86.1647 222.829 87.4035C223.041 88.7848 222.309 90.2224 222.717 91.5631C223.118 92.8769 224.471 93.6776 225.719 94.3543C226.254 91.1177 226.896 87.8995 227.646 84.6996C227.731 84.1215 227.967 83.573 228.333 83.1043C229.44 81.9089 231.611 82.5897 233.048 81.773C233.593 81.4628 233.998 80.9509 234.572 80.6897C236.231 79.9335 238.027 81.6088 239.866 81.6244C240.678 81.6313 241.568 81.324 242.254 81.7382C242.557 81.9493 242.797 82.2312 242.952 82.5568C243.608 83.7295 243.968 85.0473 244.732 86.1585C245.497 87.2697 246.866 88.1762 248.221 87.865C248.014 86.863 248.837 85.9616 249.167 84.9899C249.734 83.3183 248.807 81.5037 249.03 79.7598C249.24 78.1224 250.359 76.2003 249.131 75.0379C248.712 74.7002 248.214 74.462 247.679 74.3429C243.334 73.0284 239.32 70.8253 234.755 70.1001Z" fill="#2F2E41"/>
<path d="M272.751 111.235L278.257 113.334C278.257 113.334 285.414 135.376 283.763 135.376C282.111 135.376 267.245 139.05 267.245 137.475C267.245 135.901 268.347 111.235 272.751 111.235Z" fill="#575A89"/>
<path d="M185.563 66.4615H15.1276V119.795H21.5835V133.744L36.2168 119.795H185.563V66.4615Z" fill="#3F3D56"/>
<path d="M185.563 210.051H15.1276V263.384H21.5835V277.333L36.2168 263.384H185.563V210.051Z" fill="#3F3D56"/>
<path d="M45.255 138.667H215.691V192H209.235V205.949L194.601 192H45.255V138.667Z" fill="#3F3D56"/>
<path opacity="0.3" d="M165.765 75.2822H34.9255V80.2052H165.765V75.2822Z" fill="#6C63FF"/>
<path opacity="0.3" d="M100.345 84.718H34.9255V89.6411H100.345V84.718Z" fill="#6C63FF"/>
<path opacity="0.3" d="M42.2422 110.974C46.2831 110.974 49.5589 107.852 49.5589 104C49.5589 100.148 46.2831 97.0257 42.2422 97.0257C38.2013 97.0257 34.9255 100.148 34.9255 104C34.9255 107.852 38.2013 110.974 42.2422 110.974Z" fill="#6C63FF"/>
<path d="M191.589 146.667H60.7491V151.59H191.589V146.667Z" fill="#6C63FF"/>
<path d="M126.169 156.103H60.7491V161.026H126.169V156.103Z" fill="#6C63FF"/>
<path d="M68.0658 182.359C72.1067 182.359 75.3825 179.237 75.3825 175.385C75.3825 171.533 72.1067 168.41 68.0658 168.41C64.0249 168.41 60.7491 171.533 60.7491 175.385C60.7491 179.237 64.0249 182.359 68.0658 182.359Z" fill="#6C63FF"/>
<path opacity="0.3" d="M165.765 218.872H34.9255V223.795H165.765V218.872Z" fill="#6C63FF"/>
<path opacity="0.3" d="M100.345 228.308H34.9255V233.231H100.345V228.308Z" fill="#6C63FF"/>
<path opacity="0.3" d="M42.2422 254.564C46.2831 254.564 49.5589 251.442 49.5589 247.59C49.5589 243.738 46.2831 240.615 42.2422 240.615C38.2013 240.615 34.9255 243.738 34.9255 247.59C34.9255 251.442 38.2013 254.564 42.2422 254.564Z" fill="#6C63FF"/>
</g>
<defs>
<clipPath id="clip0">
<rect width="405" height="320" fill="white" transform="translate(-15)"/>
</clipPath>
</defs>
</svg>
